<svg width="108" height="158" viewBox="0 0 108 158" fill="none" xmlns="http://www.w3.org/2000/svg">
<g filter="url(#filter0_d_44:700)">
<rect x="4" width="100" height="150" rx="16" fill="#FBEBF2"/>
</g>
<path fill-rule="evenodd" clip-rule="evenodd" d="M52.4394 76.6047C50.2421 74.4074 46.6796 74.4074 44.4823 76.6047C42.285 78.802 42.285 82.3645 44.4823 84.5618L56.418 96.4975C58.6153 98.6948 62.1778 98.6948 64.3751 96.4975C64.3774 96.4952 64.3797 96.4929 64.382 96.4906L76.3108 84.5618C78.5081 82.3645 78.5081 78.802 76.3108 76.6047C74.1135 74.4074 70.5509 74.4074 68.3536 76.6047L60.3965 84.5618L52.4394 76.6047Z" fill="#480CA8"/>
<path fill-rule="evenodd" clip-rule="evenodd" d="M54.8499 73.8714C57.0472 76.0687 60.6098 76.0687 62.8071 73.8714C65.0044 71.6741 65.0044 68.1116 62.8071 65.9143L50.8714 53.9786C48.6741 51.7813 45.1116 51.7813 42.9143 53.9786C42.9119 53.9809 42.9096 53.9832 42.9073 53.9855L30.9786 65.9143C28.7813 68.1116 28.7813 71.6741 30.9786 73.8714C33.1759 76.0687 36.7384 76.0687 38.9357 73.8714L46.8928 65.9143L54.8499 73.8714Z" fill="#F72585"/>
<defs>
<filter id="filter0_d_44:700" x="0" y="0" width="108" height="158" filterUnits="userSpaceOnUse" color-interpolation-filters="sRGB">
<feFlood flood-opacity="0" result="BackgroundImageFix"/>
<feColorMatrix in="SourceAlpha" type="matrix" values="0 0 0 0 0 0 0 0 0 0 0 0 0 0 0 0 0 0 127 0" result="hardAlpha"/>
<feOffset dy="4"/>
<feGaussianBlur stdDeviation="2"/>
<feComposite in2="hardAlpha" operator="out"/>
<feColorMatrix type="matrix" values="0 0 0 0 0 0 0 0 0 0 0 0 0 0 0 0 0 0 0.25 0"/>
<feBlend mode="normal" in2="BackgroundImageFix" result="effect1_dropShadow_44:700"/>
<feBlend mode="normal" in="SourceGraphic" in2="effect1_dropShadow_44:700" result="shape"/>
</filter>
</defs>
</svg>
