<svg width="150" height="221" viewBox="0 0 150 221" fill="none" xmlns="http://www.w3.org/2000/svg">
<g filter="url(#filter0_d_34:36)">
<rect x="146" y="213" width="142" height="213" rx="16" transform="rotate(-180 146 213)" fill="#FBEBF2"/>
</g>
<path fill-rule="evenodd" clip-rule="evenodd" d="M97.446 111.997C100.566 108.877 100.566 103.818 97.446 100.698C94.3258 97.5781 89.267 97.5781 86.1469 100.698L74.8478 111.997L63.5487 100.698C60.4285 97.5781 55.3697 97.5781 52.2496 100.698C49.1294 103.818 49.1294 108.877 52.2496 111.997L69.1846 128.932C69.1891 128.937 69.1937 128.942 69.1982 128.946C70.5374 130.285 72.2337 131.05 73.9805 131.239C76.3037 131.491 78.7164 130.727 80.4974 128.946C80.5018 128.942 80.5063 128.937 80.5108 128.933L97.446 111.997Z" fill="#F72585"/>
<defs>
<filter id="filter0_d_34:36" x="0" y="3.8147e-05" width="150" height="221" filterUnits="userSpaceOnUse" color-interpolation-filters="sRGB">
<feFlood flood-opacity="0" result="BackgroundImageFix"/>
<feColorMatrix in="SourceAlpha" type="matrix" values="0 0 0 0 0 0 0 0 0 0 0 0 0 0 0 0 0 0 127 0" result="hardAlpha"/>
<feOffset dy="4"/>
<feGaussianBlur stdDeviation="2"/>
<feComposite in2="hardAlpha" operator="out"/>
<feColorMatrix type="matrix" values="0 0 0 0 0 0 0 0 0 0 0 0 0 0 0 0 0 0 0.25 0"/>
<feBlend mode="normal" in2="BackgroundImageFix" result="effect1_dropShadow_34:36"/>
<feBlend mode="normal" in="SourceGraphic" in2="effect1_dropShadow_34:36" result="shape"/>
</filter>
</defs>
</svg>
