<svg width="186" height="142" viewBox="0 0 186 142" fill="none" xmlns="http://www.w3.org/2000/svg">
<g filter="url(#filter0_d_73:2)">
<rect width="77.0841" height="115.626" rx="16" transform="matrix(0.955141 -0.296151 0.884797 0.465976 4.56573 63.3651)" fill="#FBEBF2"/>
</g>
<path fill-rule="evenodd" clip-rule="evenodd" d="M92.4772 79.823C89.3607 79.5354 86.7378 80.3487 86.6186 81.6395C86.4995 82.9304 88.9293 84.21 92.0457 84.4977L108.974 86.0602C112.091 86.3478 114.713 85.5345 114.833 84.2437C114.833 84.2424 114.833 84.2412 114.833 84.24L115.48 77.2317C115.599 75.9408 113.169 74.6612 110.053 74.3735C106.936 74.0859 104.313 74.8992 104.194 76.19L103.763 80.8647L92.4772 79.823Z" fill="#480CA8"/>
<path fill-rule="evenodd" clip-rule="evenodd" d="M81.1021 77.2493L80.6706 81.924C80.5515 83.2148 77.9285 84.0281 74.8121 83.7405C71.6957 83.4528 69.2659 82.1732 69.3851 80.8823L70.0323 73.8703C70.1514 72.5795 72.7744 71.7662 75.8908 72.0538C79.0072 72.3415 81.437 73.6211 81.3178 74.912L81.1021 77.2493Z" fill="#F72585"/>
<g filter="url(#filter1_d_73:2)">
<rect width="77.0841" height="115.626" rx="16" transform="matrix(0.955141 -0.296151 0.884797 0.465976 5.86133 59.7352)" fill="#FBEBF2"/>
</g>
<path fill-rule="evenodd" clip-rule="evenodd" d="M93.7727 76.1931C90.6563 75.9055 88.0334 76.7188 87.9142 78.0096C87.7951 79.3005 90.2249 80.5801 93.3413 80.8678L110.27 82.4303C113.386 82.7179 116.009 81.9046 116.128 80.6138C116.128 80.6125 116.128 80.6113 116.129 80.6101L116.775 73.6018C116.895 72.3109 114.465 71.0313 111.348 70.7436C108.232 70.456 105.609 71.2693 105.49 72.5601L105.058 77.2348L93.7727 76.1931Z" fill="#480CA8"/>
<path fill-rule="evenodd" clip-rule="evenodd" d="M93.6833 74.6611C96.7997 74.9487 99.4227 74.1354 99.5419 72.8446C99.661 71.5537 97.2312 70.2741 94.1148 69.9864L77.1867 68.424C77.1866 68.424 77.1865 68.424 77.1864 68.424C77.1864 68.424 77.1864 68.4239 77.1864 68.4239C74.0699 68.1363 71.447 68.9496 71.3278 70.2404L70.6806 77.2524C70.5615 78.5433 72.9913 79.8229 76.1077 80.1106C79.2241 80.3982 81.8471 79.5849 81.9662 78.2941L82.3977 73.6194L93.6833 74.6611Z" fill="#F72585"/>
<g filter="url(#filter2_d_73:2)">
<rect width="77.0841" height="115.626" rx="16" transform="matrix(0.955141 -0.296151 0.884797 0.465976 4.49164 55.3177)" fill="#FBEBF2"/>
</g>
<path fill-rule="evenodd" clip-rule="evenodd" d="M92.4031 71.7756C89.2866 71.4879 86.6637 72.3012 86.5445 73.5921C86.4254 74.8829 88.8552 76.1626 91.9716 76.4502L108.9 78.0127C112.016 78.3003 114.639 77.4871 114.759 76.1962C114.759 76.195 114.759 76.1937 114.759 76.1925L115.406 69.1842C115.525 67.8933 113.095 66.6137 109.979 66.3261C106.862 66.0384 104.239 66.8517 104.12 68.1426L103.689 72.8172L92.4031 71.7756Z" fill="#480CA8"/>
<path fill-rule="evenodd" clip-rule="evenodd" d="M81.028 69.2018L80.5966 73.8765C80.4774 75.1674 77.8545 75.9806 74.738 75.693C71.6216 75.4053 69.1918 74.1257 69.311 72.8348L69.9582 65.8229C70.0773 64.532 72.7003 63.7187 75.8167 64.0064C78.9331 64.294 81.3629 65.5736 81.2438 66.8645L81.028 69.2018Z" fill="#F72585"/>
<g filter="url(#filter3_d_73:2)">
<rect width="77.0841" height="115.626" rx="16" transform="matrix(0.955141 -0.296151 0.884797 0.465976 5.78729 51.6878)" fill="#FBEBF2"/>
</g>
<path fill-rule="evenodd" clip-rule="evenodd" d="M93.6987 68.1457C90.5823 67.858 87.9593 68.6713 87.8402 69.9622C87.721 71.253 90.1508 72.5327 93.2672 72.8203L110.196 74.3828C113.312 74.6704 115.935 73.8572 116.054 72.5663C116.054 72.5651 116.054 72.5638 116.055 72.5626L116.701 65.5543C116.821 64.2635 114.391 62.9838 111.274 62.6962C108.158 62.4085 105.535 63.2218 105.416 64.5127L104.984 69.1873L93.6987 68.1457Z" fill="#480CA8"/>
<path fill-rule="evenodd" clip-rule="evenodd" d="M82.3237 65.572L81.8922 70.2466C81.7731 71.5375 79.1501 72.3507 76.0337 72.0631C72.9172 71.7755 70.4875 70.4958 70.6066 69.2049L71.2538 62.193C71.373 60.9021 73.9959 60.0888 77.1123 60.3765C80.2288 60.6641 82.6586 61.9438 82.5394 63.2346L82.3237 65.572Z" fill="#F72585"/>
<g filter="url(#filter4_d_73:2)">
<rect width="77.0841" height="115.626" rx="16" transform="matrix(0.955141 -0.296151 0.884797 0.465976 5.15381 47.0419)" fill="#FBEBF2"/>
</g>
<path fill-rule="evenodd" clip-rule="evenodd" d="M93.0652 63.4998C89.9488 63.2122 87.3258 64.0254 87.2067 65.3163C87.0876 66.6072 89.5173 67.8868 92.6338 68.1744L109.562 69.7369C112.679 70.0246 115.302 69.2113 115.421 67.9204C115.421 67.9192 115.421 67.918 115.421 67.9168L116.068 60.9084C116.187 59.6176 113.757 58.3379 110.641 58.0503C107.524 57.7627 104.901 58.5759 104.782 59.8668L104.351 64.5415L93.0652 63.4998Z" fill="#480CA8"/>
<path fill-rule="evenodd" clip-rule="evenodd" d="M92.9758 61.9677C96.0922 62.2554 98.7152 61.4421 98.8343 60.1512C98.9535 58.8604 96.5237 57.5807 93.4073 57.2931L76.4791 55.7306C76.4791 55.7306 76.479 55.7306 76.4789 55.7306C76.4789 55.7306 76.4789 55.7306 76.4789 55.7306C73.3624 55.4429 70.7395 56.2562 70.6203 57.5471L69.9731 64.5591C69.854 65.8499 72.2838 67.1296 75.4002 67.4172C78.5166 67.7049 81.1396 66.8916 81.2587 65.6007L81.6902 60.9261L92.9758 61.9677Z" fill="#F72585"/>
<g filter="url(#filter5_d_73:2)">
<rect width="77.0841" height="115.626" rx="16" transform="matrix(0.955141 -0.296151 0.884797 0.465976 6 40.8286)" fill="#FBEBF2"/>
</g>
<path fill-rule="evenodd" clip-rule="evenodd" d="M93.9114 57.2865C90.795 56.9988 88.172 57.8121 88.0529 59.103C87.9337 60.3938 90.3635 61.6735 93.48 61.9611L110.408 63.5236C113.525 63.8112 116.148 62.998 116.267 61.7071C116.267 61.7059 116.267 61.7047 116.267 61.7034L116.914 54.6951C117.033 53.4042 114.603 52.1246 111.487 51.837C108.371 51.5493 105.748 52.3626 105.628 53.6535L105.197 58.3281L93.9114 57.2865Z" fill="#480CA8"/>
<path fill-rule="evenodd" clip-rule="evenodd" d="M93.822 55.7544C96.9384 56.042 99.5614 55.2288 99.6805 53.9379C99.7997 52.647 97.3699 51.3674 94.2535 51.0797L77.3253 49.5173C77.3252 49.5173 77.3252 49.5173 77.3251 49.5173C77.3251 49.5173 77.3251 49.5173 77.325 49.5173C74.2086 49.2296 71.5857 50.0429 71.4665 51.3338L70.8193 58.3457C70.7002 59.6366 73.13 60.9162 76.2464 61.2039C79.3628 61.4915 81.9858 60.6782 82.1049 59.3874L82.5364 54.7127L93.822 55.7544Z" fill="#F72585"/>
<defs>
<filter id="filter0_d_73:2" x="9.17291" y="43.8955" width="166.718" height="77.9897" filterUnits="userSpaceOnUse" color-interpolation-filters="sRGB">
<feFlood flood-opacity="0" result="BackgroundImageFix"/>
<feColorMatrix in="SourceAlpha" type="matrix" values="0 0 0 0 0 0 0 0 0 0 0 0 0 0 0 0 0 0 127 0" result="hardAlpha"/>
<feOffset dy="4"/>
<feGaussianBlur stdDeviation="2"/>
<feComposite in2="hardAlpha" operator="out"/>
<feColorMatrix type="matrix" values="0 0 0 0 0 0 0 0 0 0 0 0 0 0 0 0 0 0 0.25 0"/>
<feBlend mode="normal" in2="BackgroundImageFix" result="effect1_dropShadow_73:2"/>
<feBlend mode="normal" in="SourceGraphic" in2="effect1_dropShadow_73:2" result="shape"/>
</filter>
<filter id="filter1_d_73:2" x="10.4685" y="40.2656" width="166.718" height="77.9897" filterUnits="userSpaceOnUse" color-interpolation-filters="sRGB">
<feFlood flood-opacity="0" result="BackgroundImageFix"/>
<feColorMatrix in="SourceAlpha" type="matrix" values="0 0 0 0 0 0 0 0 0 0 0 0 0 0 0 0 0 0 127 0" result="hardAlpha"/>
<feOffset dy="4"/>
<feGaussianBlur stdDeviation="2"/>
<feComposite in2="hardAlpha" operator="out"/>
<feColorMatrix type="matrix" values="0 0 0 0 0 0 0 0 0 0 0 0 0 0 0 0 0 0 0.25 0"/>
<feBlend mode="normal" in2="BackgroundImageFix" result="effect1_dropShadow_73:2"/>
<feBlend mode="normal" in="SourceGraphic" in2="effect1_dropShadow_73:2" result="shape"/>
</filter>
<filter id="filter2_d_73:2" x="9.09882" y="35.8481" width="166.718" height="77.9897" filterUnits="userSpaceOnUse" color-interpolation-filters="sRGB">
<feFlood flood-opacity="0" result="BackgroundImageFix"/>
<feColorMatrix in="SourceAlpha" type="matrix" values="0 0 0 0 0 0 0 0 0 0 0 0 0 0 0 0 0 0 127 0" result="hardAlpha"/>
<feOffset dy="4"/>
<feGaussianBlur stdDeviation="2"/>
<feComposite in2="hardAlpha" operator="out"/>
<feColorMatrix type="matrix" values="0 0 0 0 0 0 0 0 0 0 0 0 0 0 0 0 0 0 0.25 0"/>
<feBlend mode="normal" in2="BackgroundImageFix" result="effect1_dropShadow_73:2"/>
<feBlend mode="normal" in="SourceGraphic" in2="effect1_dropShadow_73:2" result="shape"/>
</filter>
<filter id="filter3_d_73:2" x="10.3945" y="32.2182" width="166.718" height="77.9897" filterUnits="userSpaceOnUse" color-interpolation-filters="sRGB">
<feFlood flood-opacity="0" result="BackgroundImageFix"/>
<feColorMatrix in="SourceAlpha" type="matrix" values="0 0 0 0 0 0 0 0 0 0 0 0 0 0 0 0 0 0 127 0" result="hardAlpha"/>
<feOffset dy="4"/>
<feGaussianBlur stdDeviation="2"/>
<feComposite in2="hardAlpha" operator="out"/>
<feColorMatrix type="matrix" values="0 0 0 0 0 0 0 0 0 0 0 0 0 0 0 0 0 0 0.25 0"/>
<feBlend mode="normal" in2="BackgroundImageFix" result="effect1_dropShadow_73:2"/>
<feBlend mode="normal" in="SourceGraphic" in2="effect1_dropShadow_73:2" result="shape"/>
</filter>
<filter id="filter4_d_73:2" x="9.76099" y="27.5723" width="166.718" height="77.9897" filterUnits="userSpaceOnUse" color-interpolation-filters="sRGB">
<feFlood flood-opacity="0" result="BackgroundImageFix"/>
<feColorMatrix in="SourceAlpha" type="matrix" values="0 0 0 0 0 0 0 0 0 0 0 0 0 0 0 0 0 0 127 0" result="hardAlpha"/>
<feOffset dy="4"/>
<feGaussianBlur stdDeviation="2"/>
<feComposite in2="hardAlpha" operator="out"/>
<feColorMatrix type="matrix" values="0 0 0 0 0 0 0 0 0 0 0 0 0 0 0 0 0 0 0.25 0"/>
<feBlend mode="normal" in2="BackgroundImageFix" result="effect1_dropShadow_73:2"/>
<feBlend mode="normal" in="SourceGraphic" in2="effect1_dropShadow_73:2" result="shape"/>
</filter>
<filter id="filter5_d_73:2" x="10.6072" y="21.3589" width="166.718" height="77.9897" filterUnits="userSpaceOnUse" color-interpolation-filters="sRGB">
<feFlood flood-opacity="0" result="BackgroundImageFix"/>
<feColorMatrix in="SourceAlpha" type="matrix" values="0 0 0 0 0 0 0 0 0 0 0 0 0 0 0 0 0 0 127 0" result="hardAlpha"/>
<feOffset dy="4"/>
<feGaussianBlur stdDeviation="2"/>
<feComposite in2="hardAlpha" operator="out"/>
<feColorMatrix type="matrix" values="0 0 0 0 0 0 0 0 0 0 0 0 0 0 0 0 0 0 0.25 0"/>
<feBlend mode="normal" in2="BackgroundImageFix" result="effect1_dropShadow_73:2"/>
<feBlend mode="normal" in="SourceGraphic" in2="effect1_dropShadow_73:2" result="shape"/>
</filter>
</defs>
</svg>
