<svg width="168" height="160" viewBox="0 0 168 160" fill="none" xmlns="http://www.w3.org/2000/svg">
<g clip-path="url(#clip0_73:5)">
<g filter="url(#filter0_d_73:5)">
<rect width="77.0841" height="115.626" rx="16" transform="matrix(0.955141 -0.296151 0.884797 0.465976 -4.43433 72.3651)" fill="#FBEBF2"/>
</g>
<path fill-rule="evenodd" clip-rule="evenodd" d="M83.4772 88.823C80.3607 88.5354 77.7378 89.3487 77.6186 90.6395C77.4995 91.9304 79.9293 93.21 83.0457 93.4977L99.9741 95.0602C103.091 95.3478 105.713 94.5345 105.833 93.2437C105.833 93.2424 105.833 93.2412 105.833 93.24L106.48 86.2317C106.599 84.9408 104.169 83.6612 101.053 83.3735C97.9363 83.0859 95.3134 83.8992 95.1942 85.19L94.7627 89.8647L83.4772 88.823Z" fill="#480CA8"/>
<path fill-rule="evenodd" clip-rule="evenodd" d="M72.1022 86.2493L71.6707 90.924C71.5516 92.2148 68.9286 93.0281 65.8122 92.7405C62.6957 92.4528 60.266 91.1732 60.3851 89.8823L61.0323 82.8703C61.1515 81.5795 63.7744 80.7662 66.8908 81.0538C70.0073 81.3415 72.4371 82.6211 72.3179 83.912L72.1022 86.2493Z" fill="#F72585"/>
<g filter="url(#filter1_d_73:5)">
<rect width="77.0841" height="115.626" rx="16" transform="matrix(0.955141 -0.296151 0.884797 0.465976 -3.13867 68.7352)" fill="#FBEBF2"/>
</g>
<path fill-rule="evenodd" clip-rule="evenodd" d="M84.7728 85.1932C81.6564 84.9055 79.0334 85.7188 78.9143 87.0097C78.7951 88.3005 81.2249 89.5802 84.3413 89.8678L101.27 91.4303C104.386 91.7179 107.009 90.9047 107.128 89.6138C107.128 89.6126 107.128 89.6113 107.129 89.6101L107.775 82.6018C107.895 81.3109 105.465 80.0313 102.348 79.7437C99.232 79.456 96.609 80.2693 96.4899 81.5602L96.0584 86.2348L84.7728 85.1932Z" fill="#480CA8"/>
<path fill-rule="evenodd" clip-rule="evenodd" d="M84.6834 83.6611C87.7999 83.9487 90.4228 83.1355 90.542 81.8446C90.6611 80.5537 88.2313 79.2741 85.1149 78.9864L68.1868 77.424C68.1867 77.424 68.1866 77.424 68.1865 77.424C68.1865 77.424 68.1865 77.424 68.1865 77.424C65.0701 77.1363 62.4471 77.9496 62.328 79.2405L61.6808 86.2524C61.5616 87.5433 63.9914 88.8229 67.1078 89.1106C70.2243 89.3982 72.8472 88.585 72.9664 87.2941L73.3978 82.6194L84.6834 83.6611Z" fill="#F72585"/>
<g filter="url(#filter2_d_73:5)">
<rect width="77.0841" height="115.626" rx="16" transform="matrix(0.955141 -0.296151 0.884797 0.465976 -4.5083 64.3177)" fill="#FBEBF2"/>
</g>
<path fill-rule="evenodd" clip-rule="evenodd" d="M83.4031 80.7756C80.2866 80.4879 77.6637 81.3012 77.5445 82.5921C77.4254 83.8829 79.8552 85.1626 82.9716 85.4502L99.9 87.0127C103.016 87.3003 105.639 86.4871 105.759 85.1962C105.759 85.1949 105.759 85.1937 105.759 85.1925L106.406 78.1842C106.525 76.8933 104.095 75.6137 100.979 75.3261C97.8622 75.0384 95.2393 75.8517 95.1201 77.1425L94.6886 81.8172L83.4031 80.7756Z" fill="#480CA8"/>
<path fill-rule="evenodd" clip-rule="evenodd" d="M72.028 78.2018L71.5965 82.8765C71.4773 84.1674 68.8544 84.9806 65.738 84.693C62.6215 84.4053 60.1917 83.1257 60.3109 81.8348L60.9581 74.8229C61.0772 73.532 63.7002 72.7187 66.8166 73.0064C69.9331 73.294 72.3628 74.5736 72.2437 75.8645L72.028 78.2018Z" fill="#F72585"/>
<g filter="url(#filter3_d_73:5)">
<rect width="77.0841" height="115.626" rx="16" transform="matrix(0.955141 -0.296151 0.884797 0.465976 -3.21277 60.6877)" fill="#FBEBF2"/>
</g>
<path fill-rule="evenodd" clip-rule="evenodd" d="M84.6987 77.1457C81.5823 76.858 78.9593 77.6713 78.8402 78.9622C78.721 80.253 81.1508 81.5327 84.2672 81.8203L101.196 83.3828C104.312 83.6704 106.935 82.8572 107.054 81.5663C107.054 81.5651 107.054 81.5638 107.055 81.5626L107.701 74.5543C107.821 73.2635 105.391 71.9838 102.274 71.6962C99.1579 71.4085 96.5349 72.2218 96.4158 73.5127L95.9843 78.1873L84.6987 77.1457Z" fill="#480CA8"/>
<path fill-rule="evenodd" clip-rule="evenodd" d="M73.3237 74.572L72.8923 79.2466C72.7731 80.5375 70.1502 81.3507 67.0337 81.0631C63.9173 80.7755 61.4875 79.4958 61.6067 78.2049L62.2539 71.193C62.373 69.9021 64.996 69.0888 68.1124 69.3765C71.2288 69.6641 73.6586 70.9438 73.5395 72.2346L73.3237 74.572Z" fill="#F72585"/>
<g filter="url(#filter4_d_73:5)">
<rect width="77.0841" height="115.626" rx="16" transform="matrix(0.955141 -0.296151 0.884797 0.465976 -3.84619 56.0419)" fill="#FBEBF2"/>
</g>
<path fill-rule="evenodd" clip-rule="evenodd" d="M84.0652 72.4998C80.9487 72.2122 78.3258 73.0254 78.2066 74.3163C78.0875 75.6072 80.5173 76.8868 83.6337 77.1744L100.562 78.7369C103.679 79.0246 106.301 78.2113 106.421 76.9204C106.421 76.9192 106.421 76.918 106.421 76.9168L107.068 69.9084C107.187 68.6176 104.757 67.3379 101.641 67.0503C98.5243 66.7627 95.9014 67.5759 95.7822 68.8668L95.3508 73.5415L84.0652 72.4998Z" fill="#480CA8"/>
<path fill-rule="evenodd" clip-rule="evenodd" d="M83.9757 70.9677C87.0921 71.2554 89.7151 70.4421 89.8342 69.1512C89.9534 67.8604 87.5236 66.5807 84.4071 66.2931L67.479 64.7306C67.4789 64.7306 67.4788 64.7306 67.4787 64.7306C67.4787 64.7306 67.4787 64.7306 67.4787 64.7306C64.3623 64.443 61.7394 65.2562 61.6202 66.5471L60.973 73.5591C60.8539 74.8499 63.2836 76.1296 66.4001 76.4172C69.5165 76.7049 72.1395 75.8916 72.2586 74.6007L72.6901 69.9261L83.9757 70.9677Z" fill="#F72585"/>
<g filter="url(#filter5_d_73:5)">
<rect width="77.0841" height="115.626" rx="16" transform="matrix(0.955141 -0.296151 0.884797 0.465976 -3 49.8286)" fill="#FBEBF2"/>
</g>
<path fill-rule="evenodd" clip-rule="evenodd" d="M84.9114 66.2865C81.7949 65.9988 79.172 66.8121 79.0528 68.1029C78.9337 69.3938 81.3635 70.6735 84.4799 70.9611L101.408 72.5236C104.525 72.8112 107.148 71.9979 107.267 70.7071C107.267 70.7059 107.267 70.7046 107.267 70.7034L107.914 63.6951C108.033 62.4042 105.603 61.1246 102.487 60.8369C99.3705 60.5493 96.7476 61.3626 96.6284 62.6534L96.1969 67.3281L84.9114 66.2865Z" fill="#480CA8"/>
<path fill-rule="evenodd" clip-rule="evenodd" d="M84.8219 64.7544C87.9383 65.042 90.5613 64.2288 90.6804 62.9379C90.7995 61.647 88.3698 60.3674 85.2533 60.0797L68.3252 58.5173C68.3251 58.5173 68.325 58.5173 68.3249 58.5173C68.3249 58.5173 68.3249 58.5173 68.3249 58.5173C65.2085 58.2296 62.5855 59.0429 62.4664 60.3338L61.8192 67.3457C61.7 68.6366 64.1298 69.9162 67.2463 70.2039C70.3627 70.4915 72.9856 69.6782 73.1048 68.3874L73.5363 63.7127L84.8219 64.7544Z" fill="#F72585"/>
</g>
<defs>
<filter id="filter0_d_73:5" x="0.172852" y="52.8955" width="166.718" height="77.9897" filterUnits="userSpaceOnUse" color-interpolation-filters="sRGB">
<feFlood flood-opacity="0" result="BackgroundImageFix"/>
<feColorMatrix in="SourceAlpha" type="matrix" values="0 0 0 0 0 0 0 0 0 0 0 0 0 0 0 0 0 0 127 0" result="hardAlpha"/>
<feOffset dy="4"/>
<feGaussianBlur stdDeviation="2"/>
<feComposite in2="hardAlpha" operator="out"/>
<feColorMatrix type="matrix" values="0 0 0 0 0 0 0 0 0 0 0 0 0 0 0 0 0 0 0.25 0"/>
<feBlend mode="normal" in2="BackgroundImageFix" result="effect1_dropShadow_73:5"/>
<feBlend mode="normal" in="SourceGraphic" in2="effect1_dropShadow_73:5" result="shape"/>
</filter>
<filter id="filter1_d_73:5" x="1.46851" y="49.2656" width="166.718" height="77.9897" filterUnits="userSpaceOnUse" color-interpolation-filters="sRGB">
<feFlood flood-opacity="0" result="BackgroundImageFix"/>
<feColorMatrix in="SourceAlpha" type="matrix" values="0 0 0 0 0 0 0 0 0 0 0 0 0 0 0 0 0 0 127 0" result="hardAlpha"/>
<feOffset dy="4"/>
<feGaussianBlur stdDeviation="2"/>
<feComposite in2="hardAlpha" operator="out"/>
<feColorMatrix type="matrix" values="0 0 0 0 0 0 0 0 0 0 0 0 0 0 0 0 0 0 0.25 0"/>
<feBlend mode="normal" in2="BackgroundImageFix" result="effect1_dropShadow_73:5"/>
<feBlend mode="normal" in="SourceGraphic" in2="effect1_dropShadow_73:5" result="shape"/>
</filter>
<filter id="filter2_d_73:5" x="0.098877" y="44.8481" width="166.718" height="77.9897" filterUnits="userSpaceOnUse" color-interpolation-filters="sRGB">
<feFlood flood-opacity="0" result="BackgroundImageFix"/>
<feColorMatrix in="SourceAlpha" type="matrix" values="0 0 0 0 0 0 0 0 0 0 0 0 0 0 0 0 0 0 127 0" result="hardAlpha"/>
<feOffset dy="4"/>
<feGaussianBlur stdDeviation="2"/>
<feComposite in2="hardAlpha" operator="out"/>
<feColorMatrix type="matrix" values="0 0 0 0 0 0 0 0 0 0 0 0 0 0 0 0 0 0 0.25 0"/>
<feBlend mode="normal" in2="BackgroundImageFix" result="effect1_dropShadow_73:5"/>
<feBlend mode="normal" in="SourceGraphic" in2="effect1_dropShadow_73:5" result="shape"/>
</filter>
<filter id="filter3_d_73:5" x="1.39441" y="41.2181" width="166.718" height="77.9897" filterUnits="userSpaceOnUse" color-interpolation-filters="sRGB">
<feFlood flood-opacity="0" result="BackgroundImageFix"/>
<feColorMatrix in="SourceAlpha" type="matrix" values="0 0 0 0 0 0 0 0 0 0 0 0 0 0 0 0 0 0 127 0" result="hardAlpha"/>
<feOffset dy="4"/>
<feGaussianBlur stdDeviation="2"/>
<feComposite in2="hardAlpha" operator="out"/>
<feColorMatrix type="matrix" values="0 0 0 0 0 0 0 0 0 0 0 0 0 0 0 0 0 0 0.25 0"/>
<feBlend mode="normal" in2="BackgroundImageFix" result="effect1_dropShadow_73:5"/>
<feBlend mode="normal" in="SourceGraphic" in2="effect1_dropShadow_73:5" result="shape"/>
</filter>
<filter id="filter4_d_73:5" x="0.760986" y="36.5723" width="166.718" height="77.9897" filterUnits="userSpaceOnUse" color-interpolation-filters="sRGB">
<feFlood flood-opacity="0" result="BackgroundImageFix"/>
<feColorMatrix in="SourceAlpha" type="matrix" values="0 0 0 0 0 0 0 0 0 0 0 0 0 0 0 0 0 0 127 0" result="hardAlpha"/>
<feOffset dy="4"/>
<feGaussianBlur stdDeviation="2"/>
<feComposite in2="hardAlpha" operator="out"/>
<feColorMatrix type="matrix" values="0 0 0 0 0 0 0 0 0 0 0 0 0 0 0 0 0 0 0.25 0"/>
<feBlend mode="normal" in2="BackgroundImageFix" result="effect1_dropShadow_73:5"/>
<feBlend mode="normal" in="SourceGraphic" in2="effect1_dropShadow_73:5" result="shape"/>
</filter>
<filter id="filter5_d_73:5" x="1.60718" y="30.3589" width="166.718" height="77.9897" filterUnits="userSpaceOnUse" color-interpolation-filters="sRGB">
<feFlood flood-opacity="0" result="BackgroundImageFix"/>
<feColorMatrix in="SourceAlpha" type="matrix" values="0 0 0 0 0 0 0 0 0 0 0 0 0 0 0 0 0 0 127 0" result="hardAlpha"/>
<feOffset dy="4"/>
<feGaussianBlur stdDeviation="2"/>
<feComposite in2="hardAlpha" operator="out"/>
<feColorMatrix type="matrix" values="0 0 0 0 0 0 0 0 0 0 0 0 0 0 0 0 0 0 0.25 0"/>
<feBlend mode="normal" in2="BackgroundImageFix" result="effect1_dropShadow_73:5"/>
<feBlend mode="normal" in="SourceGraphic" in2="effect1_dropShadow_73:5" result="shape"/>
</filter>
<clipPath id="clip0_73:5">
<rect width="168" height="160" fill="white"/>
</clipPath>
</defs>
</svg>
